/* XPM */
static char *wall4[] = {
/* columns rows colors chars-per-pixel */
"32 32 81 1 ",
"  c #2F1F1F",
". c #3C1515",
"X c #361919",
"o c #3C1B1B",
"O c #3E2323",
"+ c #302E2E",
"@ c #3B2B2B",
"# c #363434",
"$ c #3A3535",
"% c #3D3B3B",
"& c #470909",
"* c #4A0909",
"= c #550404",
"- c #5C0404",
"; c #411414",
": c #491313",
"> c #431919",
", c #4B1E1E",
"< c #5B1E1E",
"1 c #630404",
"2 c #6B0404",
"3 c #740202",
"4 c #7C0000",
"5 c #760E0E",
"6 c #7C0E0E",
"7 c #651D1D",
"8 c #432424",
"9 c #482626",
"0 c #442A2A",
"q c #4B2C2C",
"w c #562323",
"e c #5B2525",
"r c #512F2F",
"t c #453333",
"y c #4C3333",
"u c #453B3B",
"i c #4B3B3B",
"p c #523333",
"a c #583535",
"s c #543A3A",
"d c #5A3C3C",
"f c #602323",
"g c #6F2424",
"h c #7B2424",
"j c #762C2C",
"k c #782B2B",
"l c #603A3A",
"z c #444343",
"x c #4B4242",
"c c #474949",
"v c #4A4C4C",
"b c #554040",
"n c #5B4343",
"m c #4F5151",
"M c #525454",
"N c #840000",
"B c #8B0000",
"V c #8C0808",
"C c #930101",
"Z c #9B0303",
"A c #950909",
"S c #9B0909",
"D c #8C1D1D",
"F c #901F1F",
"G c #A30606",
"H c #AA0606",
"J c #A30909",
"K c #AA0909",
"L c #B40707",
"P c #B20909",
"I c #BB0909",
"U c #AA1212",
"Y c #B71111",
"T c #BA1010",
"R c #842424",
"E c #882323",
"W c #872D2D",
"Q c #8C2B2B",
"! c #922222",
"~ c #932E2E",
"^ c #9A2929",
/* pixels */
"isssssuzssspsdnsssizddnsspyyssiu",
"!IPHLHenTHHHKPKKKHesTIIPKKLKJKJ7",
"FGCZCN>nKZCCBCBBBN>sJBBNBCZCCBN:",
"DZBBN3osKCBBNNNBN4osSNBN4CBBBBN;",
"g3-===Xu52-1---===Xi512-11---1-X",
"aqqq0O0iuyr98qqO0qydppsspq@+qqqq",
"KGSSSAZ6zQLHGHJJSASSSSJJKJebIKKK",
"CCNNBNC-#EZCBNNBBBNBBNCBC4obKCCC",
"BBNNBNB-#RCBB434B4NN4NNNB4XySCBB",
"1-=11--&%j41211112-1111-21Xi61-1",
"yqqq0qOOsdpq90uprq089q08qqynp9yt",
"^LKHJJSHSSJAH5z~LPKGKJAAAASSSAV<",
"DZCNNCBZNBBNB1%~HCNNBBBNNBBBCB3.",
"EB43NNNB4BNNN-%~ZBNBN4444NNBN43.",
"h411-1221--11&#j421112111--2112X",
"layqq@tspypq00ydpqpq@Oqsr9qyqqq0",
"JKKHZebUSJJASAASAAS6zWHSKSSSASAA",
"BCZCNosSBCBBBNNBBBC2z~ZBBBCBBCBN",
"BCCC48nABBNBBB44NBB1zQZCBCBCBCBN",
"-1-1=oi532232111222*%j3345332232",
"tqqq00sp09qpp08q$yqqsdrqadq9qpqt",
"!KJZGSAAAASAASC5uQLSSSSAAAAASAA<",
"FCN4NBNNNNN4NBN-#RZ3444NNNNBBB4;",
"FCBNBBBNN4NNNBB-+ECN44N444BBBN4;",
"h3222222---1122=#j312121111211-.",
"arqpqpsp9$t8O9q0iapqqqqiuyq8X0qq",
"JJSASSAS6zQLHASSAASAAVVenUSSCAAA",
"B4N4V444-#RCN34NBNN4443>nA4BBN43",
"N44NN44N-#RBNN444N44432.nZ4BN44N",
"44344344-$h44333333N332.sV23N434",
">>>>>>>>oul8>>>>>>>;... ieo>;;.>",
"vvzzvvvccmMmvvvvvcvzzzczvvvvvzzv"
};
