/* XPM */
static char *wall3[] = {
/* columns rows colors chars-per-pixel */
"32 32 175 2 ",
"   c #1D1D1D",
".  c #1E1E1E",
"X  c #222222",
"o  c #232323",
"O  c #252525",
"+  c #262626",
"@  c #272727",
"#  c #282828",
"$  c #292929",
"%  c #2A2A2A",
"&  c #2B2B2B",
"*  c #2C2C2C",
"=  c #2D2D2D",
"-  c #2E2E2E",
";  c #2F2F2F",
":  c #303030",
">  c #313131",
",  c #323232",
"<  c #343434",
"1  c #353535",
"2  c #363636",
"3  c #373737",
"4  c #383838",
"5  c #393939",
"6  c #3A3A3A",
"7  c #3B3B3B",
"8  c #3C3C3C",
"9  c #3D3D3D",
"0  c #3E3E3E",
"q  c #3F3F3F",
"w  c #404040",
"e  c #414141",
"r  c #424242",
"t  c #434343",
"y  c #444444",
"u  c #454545",
"i  c #464646",
"p  c #474747",
"a  c #484848",
"s  c #494949",
"d  c #4A4A4A",
"f  c #4B4B4B",
"g  c #4C4C4C",
"h  c #4D4D4D",
"j  c #4E4E4E",
"k  c #4F4F4F",
"l  c #505050",
"z  c #515151",
"x  c #525252",
"c  c #535353",
"v  c #545454",
"b  c #555555",
"n  c #565656",
"m  c #575757",
"M  c #585858",
"N  c #595959",
"B  c #5A5A5A",
"V  c #5B5B5B",
"C  c #5C5C5C",
"Z  c #5D5D5D",
"A  c #5E5E5E",
"S  c #5F5F5F",
"D  c #606060",
"F  c #616161",
"G  c #626262",
"H  c #636363",
"J  c #646464",
"K  c #656565",
"L  c #666666",
"P  c #676767",
"I  c #686868",
"U  c #696969",
"Y  c #6A6A6A",
"T  c #6B6B6B",
"R  c #6C6C6C",
"E  c #6D6D6D",
"W  c #6E6E6E",
"Q  c #6F6F6F",
"!  c #707070",
"~  c #717171",
"^  c #727272",
"/  c #737373",
"(  c #747474",
")  c #757575",
"_  c #767676",
"`  c #777777",
"'  c #787878",
"]  c #797979",
"[  c #7A7A7A",
"{  c #7B7B7B",
"}  c #7C7C7C",
"|  c #7D7D7D",
" . c #7E7E7E",
".. c #7F7F7F",
"X. c #808080",
"o. c #818181",
"O. c #828282",
"+. c #838383",
"@. c #848484",
"#. c #858585",
"$. c #868686",
"%. c #878787",
"&. c #888888",
"*. c #898989",
"=. c #8A8A8A",
"-. c #8B8B8B",
";. c #8C8C8C",
":. c #8D8D8D",
">. c #8E8E8E",
",. c #8F8F8F",
"<. c #909090",
"1. c #919191",
"2. c #929292",
"3. c #939393",
"4. c #949494",
"5. c #959595",
"6. c #969696",
"7. c #979797",
"8. c #989898",
"9. c #999999",
"0. c #9A9A9A",
"q. c #9B9B9B",
"w. c #9C9C9C",
"e. c #9D9D9D",
"r. c #9E9E9E",
"t. c #9F9F9F",
"y. c #A0A0A0",
"u. c #A1A1A1",
"i. c #A2A2A2",
"p. c #A3A3A3",
"a. c #A4A4A4",
"s. c #A5A5A5",
"d. c #A6A6A6",
"f. c #A7A7A7",
"g. c #A8A8A8",
"h. c #A9A9A9",
"j. c #AAAAAA",
"k. c #ABABAB",
"l. c #ACACAC",
"z. c #ADADAD",
"x. c #AEAEAE",
"c. c #AFAFAF",
"v. c #B0B0B0",
"b. c #B1B1B1",
"n. c #B2B2B2",
"m. c #B3B3B3",
"M. c #B4B4B4",
"N. c #B5B5B5",
"B. c #B6B6B6",
"V. c #B7B7B7",
"C. c #B8B8B8",
"Z. c #B9B9B9",
"A. c #BABABA",
"S. c #BBBBBB",
"D. c #BCBCBC",
"F. c #BDBDBD",
"G. c #BEBEBE",
"H. c #BFBFBF",
"J. c #C0C0C0",
"K. c #C2C2C2",
"L. c #C3C3C3",
"P. c #C5C5C5",
"I. c #C6C6C6",
"U. c #C7C7C7",
"Y. c #C8C8C8",
"T. c #C9C9C9",
"R. c #CACACA",
"E. c #CCCCCC",
"W. c #CDCDCD",
"Q. c #CECECE",
"!. c #CFCFCF",
"~. c #D2D2D2",
"^. c #D5D5D5",
"/. c #D6D6D6",
"(. c #D8D8D8",
/* pixels */
"e e e r e K <.;.:.,.:.;.<.M a ' o.X. .] J 3 6 r r t w w q q q w ",
"[ ' _ U s 4.~.I.Y.T.T.P.D.b Y B.i.y.r.w.` , C g.j.h.8.o./ ( / ) ",
"C.N.d.] q 6.G.g.d.d.s.p.<.9 M w.8.w.t.-.B ; I R.B.N.F.M.c.c.c.z.",
"h.r.4.G < 6.C.9.i.7.1.8.%.0 0 _ 8.<.>.} w = U J.w.,.2.2.5.0.7.7.",
"7.1./ i & O.A.r.6.2.,.7...e , g h q 9 5 # ; S F.w.,.3.<.4.2.6.:.",
"A N r - % R B.6.$.<.6.<.O.d : y t M P E G p M w.#.| ) U S B N M ",
"& & % & 1 M m.0.:.1.1.,.+.p % L b.H.N.b.@.0 r m g u q 2 : * % % ",
"d t r r 8 g 9.i.6.4.>.7.] f # | I.w.5.4./ > 3 f u 1 w y i u i y ",
"f.p.i.6.n 6 | d.5.3.>.<.[ b + | Z.7.6.6.E : J Z.` M i.c.x.x.x.x.",
"s.u.p.;.z 3 Z >.$.../ Y C w X W 0._ M l i ; *.N.B ~ I.m.z.x.d.k.",
"w.6.8.O.p 2 f a w 4 , * $ o X h B w - ; @ > t.x.N Q v.0.7.5.%.,.",
"2.&.4. .t 1  .%.~ H a 2 A | +.7.l.x.h.:.e B G.u.x P k.9.8.4.$.<.",
"1.2.:.U 8 w m.h.f.u.Y h g.Y.N.c.n.M.b.=.7 T J.5.f c %.] ( ' O.-.",
"N x d < & y k.r.t.1.f f m.g.7.4.,.2.6.( 1 T G.3.i 7 1 2 2 3 q g ",
"y x G G F n z.2.0.=.s e b.p.1.=.$.:.4.) < T S.6.i s h d e 7 < > ",
"&.F.K.C.i.V l.8.<.5.b 6 s.m.2.>.#.,.5.R : T M.1.t [ f.g.4.,._ f ",
"i.m.e.r.3.G l.w.e.5.V ; *.I.r.1.:.&.4.F : W B.3.e $.p.y.p.s.o.a ",
"a.k.8.r.<.M c.0.7.7.V * E L.y.1.1.5.<.c & ! c.O.q o.k.y.7.w.[ r ",
"a.c.r.w.1.x c.9.6.1.A @ k f.e.o.( Y M 8 - M U s 0 A ( ^ ! W S 8 ",
"a.k.9.q.1.g t.i.9.1.A O 9 V n 8 = & # # > a d j l i 6 3 3 3 3 3 ",
"a.x.8.w.*.q 1.d.>.2.A + 3 C D A G L K P E ] ,.w.r.r.e.w.0.9.{ p ",
"r.x.e.t.~ = >.f.2.>.D = * 4.I.W.W.U.R.T.!./.(.^.Q.!.T.W.I.J.) 8 ",
"<.d.8.o.A : %.p.8.1.D ; O 2.Y.c.z.l.v.n.c.b.j.8.7.y.5.e.i.q.G 4 ",
"! #.^ V 0 , ) 8.<.+.S ; . | E.q.2.1.<.5.3.e.4.<.2.<.,.>.5.1.F 2 ",
"d 9 3 7 , 6 j v z j u *   Y J.9.5.2.1.,.>.2.5.1.2.<.,.;.<.O.Z > ",
"Z } } T f g 9 # + + O @ + l U n v m ) &.+.| X. .@.#.#.@.o.X.M > ",
"O.K.S.P.S.j.;...' ( E P D A b d e 6 4 y p i y y r q q q q q 1 4 ",
"$.F.u.t.d.x.V.V.N.Z.m.b.n.n.M.d.G p p f q < < < , : : : : , 9 d ",
"+.v.7.-.2.2.5.;.$.-.=.1.8.q.g.:.p 8 O.B.f.>.U n o.=.=.%.O.) G k ",
"Q I l k x x x l l k z x x z c h 5 & | k.g.u. .{ n.k.l.f.g.a.#.e ",
"f 3 * % % $ # # % @ # # @ # # @ % % s c g i u U ] ^ / ^ ^ ~ b 8 ",
"a u w q q 0 6 5 5 4 5 5 4 5 5 4 5 5 e p 9 2 2 w 8 : : : : : : 6 "
};
