/* XPM */
static char *wall2[] = {
/* columns rows colors chars-per-pixel */
"32 32 211 2 ",
"   c #39381A",
".  c #343419",
"X  c #29291F",
"o  c #252525",
"O  c #2E2E25",
"+  c #262729",
"@  c #2B2B2B",
"#  c #323225",
"$  c #31312C",
"%  c #3B3B2C",
"&  c #3F3E27",
"*  c #2F2F31",
"=  c #343435",
"-  c #3C3B34",
";  c #37373A",
":  c #3C3C3C",
">  c #403F2B",
",  c #44420F",
"<  c #4A4918",
"1  c #595819",
"2  c #6E6D19",
"3  c #6F6D11",
"4  c #716E18",
"5  c #7E7B13",
"6  c #7A771A",
"7  c #41402E",
"8  c #464527",
"9  c #59582E",
"0  c #454534",
"q  c #43433C",
"w  c #4A4A3C",
"e  c #4B4A37",
"r  c #504F30",
"t  c #525239",
"y  c #59593B",
"u  c #585832",
"i  c #6C6A2D",
"p  c #67672A",
"a  c #7D7B23",
"s  c #7E7D2B",
"d  c #777424",
"f  c #686736",
"g  c #727132",
"h  c #7C7A35",
"j  c #797639",
"k  c #3E3E40",
"l  c #434343",
"z  c #494942",
"x  c #454648",
"c  c #4B4B4B",
"v  c #54534A",
"b  c #595845",
"n  c #4E4E50",
"m  c #535454",
"M  c #565759",
"N  c #5B5B5B",
"B  c #5C5C53",
"V  c #605F57",
"C  c #65644D",
"Z  c #6E6D4D",
"A  c #676745",
"S  c #7B7A44",
"D  c #767648",
"F  c #656553",
"G  c #6D6C53",
"H  c #64645C",
"J  c #6C6C5E",
"K  c #706F55",
"L  c #787758",
"P  c #626263",
"I  c #6A6A62",
"U  c #666668",
"Y  c #6B6B6B",
"T  c #7D7C62",
"R  c #74746C",
"E  c #797969",
"W  c #727266",
"Q  c #747474",
"!  c #7D7C74",
"~  c #767678",
"^  c #7C7C7C",
"/  c #837E10",
"(  c #807F2D",
")  c #817E32",
"_  c #807E43",
"`  c #807F6D",
"'  c #807F7B",
"]  c #868506",
"[  c #918D09",
"{  c #949204",
"}  c #989608",
"|  c #9A9807",
" . c #89871B",
".. c #8C8A1D",
"X. c #878517",
"o. c #918F19",
"O. c #94911C",
"+. c #9A9618",
"@. c #A39E0B",
"#. c #A19D1A",
"$. c #ABA60D",
"%. c #B1AA02",
"&. c #BCB600",
"*. c #AAA618",
"=. c #B2AE12",
"-. c #86832B",
";. c #8C8928",
":. c #928F23",
">. c #949329",
",. c #97942A",
"<. c #858233",
"1. c #8D8B3C",
"2. c #84823D",
"3. c #9B993B",
"4. c #A09E2D",
"5. c #A09E36",
"6. c #A8A429",
"7. c #B1AC27",
"8. c #BEB828",
"9. c #A5A236",
"0. c #AEAA33",
"q. c #A8A53B",
"w. c #BFBA3C",
"e. c #B1AD3D",
"r. c #CCC528",
"t. c #85834E",
"y. c #8F8E4A",
"u. c #878443",
"i. c #918F4F",
"p. c #979445",
"a. c #888652",
"s. c #84835B",
"d. c #878656",
"f. c #9D9A53",
"g. c #99975B",
"h. c #989659",
"j. c #A39F4A",
"k. c #A09D55",
"l. c #A5A14B",
"z. c #AAA649",
"x. c #B1AD42",
"c. c #A9A653",
"v. c #A6A45C",
"b. c #AAA758",
"n. c #B2AE5B",
"m. c #B9B65B",
"M. c #8C8B63",
"N. c #8C8B6C",
"B. c #848368",
"V. c #949363",
"C. c #9C9A63",
"Z. c #92916B",
"A. c #9C9B6C",
"S. c #999666",
"D. c #828275",
"F. c #8C8C74",
"G. c #81817C",
"H. c #8A8A7D",
"J. c #929274",
"K. c #9A9974",
"L. c #989779",
"P. c #97967A",
"I. c #A19F75",
"U. c #A4A26C",
"Y. c #A8A665",
"T. c #A3A273",
"R. c #A8A779",
"E. c #B2AF71",
"W. c #B3B074",
"Q. c #B6B469",
"!. c #C1BC47",
"~. c #C0BC6C",
"^. c #C6C36E",
"/. c #7F7F80",
"(. c #838384",
"). c #8C8B84",
"_. c #878789",
"`. c #8C8C8C",
"'. c #939384",
"]. c #93938C",
"[. c #9C9B8B",
"{. c #9A9984",
"}. c #8F8F90",
"|. c #939393",
" X c #9B9B93",
".X c #9B9B9A",
"XX c #969699",
"oX c #A6A584",
"OX c #ACAB8B",
"+X c #A8A789",
"@X c #B3B287",
"#X c #A3A395",
"$X c #A4A39C",
"%X c #ADAC9C",
"&X c #A9A893",
"*X c #B0AF98",
"=X c #B7B59A",
"-X c #9F9FA1",
";X c #A3A3A5",
":X c #ADADAC",
">X c #A7A7A6",
",X c #B4B3A3",
"<X c #B9B9A8",
"1X c #AEAEB2",
"2X c #B3B3B4",
"3X c #B7B7BA",
"4X c #BBBBBB",
"5X c #B9B8B1",
"6X c #C6C5A8",
"7X c #C6C5B5",
"8X c #BEBEC1",
/* pixels */
"l l q l l H -.X.t.H.).s.( v x /._.B./ f M ; ; 0 0 k l k l k k k ",
"Q R Q Y x |.^.%.j.!.^.<X7.y U 8XoXc.} a H = p $.X.(.C.1.C ( J Q ",
"%Xl.).~ k |.m.] s.v.T.`.t.0 M R.S.[.D A M @ 2 %.D E.!.$.Z | S $X",
"$XB.).U = |.@XS ].-Xh.P.(.q k _ h.`./.U q $ 9 a G.e.p.d F W J t.",
"XX`.R x @ }.4X}.c.C.`.XX}.l = m n l : : $ = B `.F.'.'.R ^ }.}.G.",
"N M l @ @ _.4X).0.1.|.].H.x * l w F Y ~ G % N  XL B._ U I P P N ",
"@ @ @ @ = Y 4XXXZ.H.|.).L x @ J w.Q.5X<Xc.8 l N c z > = = @ @ @ ",
"x l l l k c .X$XA.Z.`.'.Z c @ L 7.N.w.v.g 8 0 e q = k x x x l x ",
"Y.U.U.s.M ; ^ L.a.M./.`.R M + <.k.J.6.B.G ; d +.v N C.c.U.{.l.U.",
"*.0.@.i c ; V ' ~ Q Y Y N l o H G.B.b x x $ i s l J 8.z.6.K.=.1.",
"L.k.6 C x = c c : $ * @ + o o c N 7 . O @ = D.F.x Y [.{.Z.].9._ ",
"U.d.! ~ l = S 6 y P n = p ( j ].%X#.@...8 M 8X2Xv H #XoX+XoX].].",
"y.M.`.I : % @.:.T ! N v b.b.Y.@XOXg.>.[ , I @X&Xi i B.V.*.u././.",
"v m c = @ > ..E s.6 q x <X~.9.h.x.{.Z.Z   F K.#Xr & % 8 ,   : x ",
"x v B N P m #X{.i.D w l ,Xm.:.H.[.[.,.J . h 7X:Xz - % % % @ * = ",
"D.9.y.$X XN 3X$XF.(.t - [.0.( ).-X{.+.C . s 6Xl.0 y X.{ { 5 A c ",
"1.:.D.f.1.N 2X-X'.).t O ` Y.3.Z.`.H.O.b O S 6XX.% ~ P.o.s d Z c ",
"D. X].>.g m :X Xv.).t X Y 7XO.L |.S.-.v O T %X3 . (.&X;.D._.Q k ",
".X>XJ.a G n 1X Xh.).y . n $X` ^ ' Z I x @ N H 1 & P R i H U N ; ",
";X%XV.y.s.c -X;XXX(.H . k N M x : % x : ; c z z w q : ; ; ; ; = ",
"g.0.{.o.g k `.%XN.`.J   = f 2 2 2 f Y /.(.`.`.h.} ;.K.h.g.1.R x ",
";.1.XXM.Z @ `.$XT `.V   $ [ &.&.&.*.#X1X@X@X,X0.5.7.n.W.x.$.Z k ",
"h M.XX}.P @ (.;X.X`.V # @ f z.| { ] s.1XT.K.$XoXv.p.L.#XM.y.N ; ",
"H ~ Q P k = ~ .X}./.N @ + ~ 7X<.g D D.+X;X XQ.U.'.`.z.Y. Xa.N = ",
"c l k : * : c m n c l @ o Y 4X`.].#.i. X-XOXz.g.&X$XC.[.[.C.V * ",
"V S 5 p w c k @ + + @ + + n Y m v 1 G (.F.f.;.D.(.`._.).N.(.N * ",
"` r.8.c.U.T.p.-.6 2 4 9 N N M x l : ; l z q k l l k k l k k = ; ",
"/.=XOX<X%X<X*XR.q.3.>.;.'.,Xn. XP x w 0 - = = = % % # $ * $ : c ",
"/.3X;Xb.:.%X3X1XOXoX.X#XXX%Xb.! x k i [ h _.Y A +.O.) T d.E P n ",
"Y Y m u r M N M M B P I M m n c ; $ C 5 D -X/.I P.K.c.+X,.'._.l ",
"c ; @ @ @ @ + @ @ o + O @ + + @ @ @ q < z x x n I 2.s D f P M - ",
"x x q : k : ; = ; = ; = ; = ; ; = ; - q ; = = - ; O @ $ $ $ * ; "
};
