/* XPM */
static char *outfile[] = {
/* columns rows colors chars-per-pixel */
"32 32 26 1 ",
"  c gray11",
". c #382C14",
"X c #202020",
"o c #282828",
"O c #2C2C2C",
"+ c gray19",
"@ c #343434",
"# c gray22",
"$ c #403018",
"% c #483818",
"& c #543C1C",
"* c #5C4020",
"= c #6C4824",
"- c #744C28",
"; c gray25",
": c #484848",
"> c #4C4C4C",
", c gray33",
"< c gray36",
"1 c #646464",
"2 c gray44",
"3 c #7C7C7C",
"4 c #80502C",
"5 c gray55",
"6 c #989898",
"7 c gray66",
/* pixels */
"33&********&%**&,322OOOO1,,>>,<2",
"22,&****&**&%&%,1**:1OO1,,,11111",
">23%*******%%,3:%%$$:11,<<<<<<<<",
">>2,&*****$:13*%%%$%.7,,>>:>>>>>",
">>:3,&**&$13:&%%%%$%.6,>>>>>>>>>",
">>:33,$$,31*&%%%%%%$;5<:>:>>>>>>",
">>:21,1651&%&%%%%%%.,5,>>>>>:::>",
">:12,,:23&*%%%%%%%%.13,>>>>>>::>",
":131,,;,1%%&%%%%$%$.33>>>>>>>>>:",
"1:&1,,;,2&%%%%%%.%.<*,;>>>>>>>;;",
":*%$2;;,::%%%%%$..1%%%2;;::;###1",
"*%%$1:;,#3%%%%%.;1,,,362,;;;;#1:",
"%%%$:3;>#3:$%$.11:;#;;353,###11*",
"%&%.$21#233..;<,::;;;#11:3,,11&%",
"%%%.$352=**113,:;;;;#+1:::352&%%",
"%%%$$222***%2,,;;;;;#,311112,&%&",
"%%$%:3,,3&%1,:,;;;;;@2=******&%%",
"%%.:1,,,,333:;,;;;#;+,**&***&&%%",
"%%:13<,,,,56;;,;;;@#2=******&:%%",
"%:13,,<,,:,5#;,:;;++3=****&*&3:%",
":151,,<,,,,12#,>;;+,1*=***&*%33:",
"162,,<,,,,;,1:+:;;+1=*4*****%OO#",
"O:,,<<,,,,;,,1,@#;+3&*-*****%OOX",
"X1,,,,,,,,;,#35,@#,23&****&*%OOO",
"121,<,,,,,@#,:%:1,3#O11****%1XXX",
"3351:,,,:,@,:%%%%3:OOO12&&%1,,,3",
"=*=,1#,,:#,:%%%%%3OoOoO12:1,,,,1",
"****=1#::1&&%%%$:#OOXOOO125>,,>1",
"*&****&:1&*%%%%$1OoOOXoOO1,,,,:=",
"***&&%,1&%*&%%$,#OoOOXXoOO1,,:,*",
"***&$,33%%*%%%::OOOOOoXooOO1:,=*",
"***%,,;,,%*%%$1OOOOoOOXXXoO,>1**"
};
